<svg id="Layer_1" data-name="Layer 1" xmlns="http://www.w3.org/2000/svg" viewBox="0 0 1080 218.8"><defs><style>.cls-1{fill:#000f9f;}</style></defs><path d="M356.81,203.53a4,4,0,0,1-1.6-.44,2.19,2.19,0,0,1-.89-.92,5,5,0,0,1-.45-1.8l-2.53-30.56c-.09-.77-.18-1.6-.27-2.51a17.84,17.84,0,0,1-.06-2.63,1.87,1.87,0,0,1,.6-1.41,4.38,4.38,0,0,1,1.47-.81,8.11,8.11,0,0,1,1.89-.34c.7-.05,1.3-.07,1.77-.07h1.07v-2.93h-.47c-1.16,0-2.36,0-3.57.13s-2.36.13-3.5.13-2.36,0-3.49-.13-2.28-.13-3.3-.13h-.31l-.12.27-15.37,33.91-15.17-33.91-.12-.27h-.3c-1,0-2.06,0-3,.13s-2,.13-3,.13c-1.36,0-2.72,0-4-.13s-2.72-.13-4.1-.13h-.47V162h1.34a8.57,8.57,0,0,1,2,.25,5.07,5.07,0,0,1,1.68.77,3.74,3.74,0,0,1,1.16,1.37,4.62,4.62,0,0,1,.45,2.15c0,1.31-.07,3-.2,5s-.34,4.26-.6,6.66l-2,18.55c-.13,1.19-.28,2.23-.43,3.11a5.33,5.33,0,0,1-.76,2.06,3.24,3.24,0,0,1-1.49,1.19,8.49,8.49,0,0,1-2.94.5h-1.38v3l.5,0c1.3-.08,2.61-.15,3.91-.19s2.67-.07,3.92-.07c1.47,0,3,0,4.52.07s3,.11,4.52.19l.49,0v-3H311c-.88,0-1.71-.1-2.43-.16a3.55,3.55,0,0,1-1.59-.5,2.61,2.61,0,0,1-.85-1.12,6.07,6.07,0,0,1-.33-2.28L307.9,172l15.49,35.27.12.28h2.21l.12-.28,16.34-36,1.76,26.52c.05.89.07,1.54.07,2V201a2.57,2.57,0,0,1-.32,1.4,2,2,0,0,1-.95.73,6.75,6.75,0,0,1-1.68.37c-.7.06-1.48.12-2.34.16l-.44,0v2.94l.49,0c1.88-.08,3.73-.15,5.48-.19s3.67-.07,5.49-.07c1.56,0,3.18,0,4.82.07s3.18.11,4.75.19l.49,0v-2.94l-.44,0C358.41,203.65,357.56,203.59,356.81,203.53Z"/><path d="M412.13,194.57l-.45-.11-.12.45a14.21,14.21,0,0,1-1.76,4.36,6.64,6.64,0,0,1-2.52,2.27,10.12,10.12,0,0,1-3.63,1c-1.45.13-3.19.2-5.16.2-1.05,0-2.07,0-3-.07a8.25,8.25,0,0,1-2.47-.44,3.17,3.17,0,0,1-1.58-1.13,3.72,3.72,0,0,1-.57-2.22V183.77h7.53a5.91,5.91,0,0,1,2.49.42,2.78,2.78,0,0,1,1.27,1.14,5.73,5.73,0,0,1,.64,1.91q.19,1.17.33,2.7l.05.52.51-.1,2-.4.39-.08,0-.41c-.13-2.52-.2-5.06-.2-7.57s.07-5.21.2-7.77l0-.49h-2.92l0,.42a9.38,9.38,0,0,1-1.2,4.06c-.57.92-1.78,1.38-3.6,1.38h-7.46V163h8.79a11.71,11.71,0,0,1,4,.57,5,5,0,0,1,2.2,1.52,5.48,5.48,0,0,1,1,2.31,24.1,24.1,0,0,1,.43,3l0,.56.54-.14,2-.54.37-.1,0-.38c-.09-1.47-.16-3.19-.2-5.11s0-3.63.07-5l0-.49h-.5l-3.77,0c-1.4,0-2.86.06-4.37.1s-3.05.08-4.53.1l-4.39,0-4.36,0c-1.5,0-3-.05-4.49-.1s-2.87-.08-4.2-.1l-3.55,0h-.46V162h1.4a14,14,0,0,1,1.74.1,3.66,3.66,0,0,1,1.39.44,2.56,2.56,0,0,1,1,1,3.56,3.56,0,0,1,.37,1.82v34.92a3.7,3.7,0,0,1-.37,1.81,2.54,2.54,0,0,1-1,1,3.66,3.66,0,0,1-1.39.44,16.33,16.33,0,0,1-1.74.09h-1.4v2.94H376l3.54,0,4.54-.1c1.62-.05,3.26-.08,4.89-.1s3.25,0,4.76,0,3.09,0,4.73,0,3.24,0,4.86.1l4.57.1,3.77,0H412l.07-.39c.3-1.75.65-3.52,1-5.28s.79-3.52,1.23-5.28l.11-.46L414,195Z"/><path d="M471.86,165.59a24.58,24.58,0,0,0-8.49-4.79,34.82,34.82,0,0,0-11.18-1.69c-1.42,0-3.06,0-4.85.13s-3.76.13-5.88.13-4.18,0-6.14-.13-3.5-.13-4.52-.13h-.47V162h1.4a14.2,14.2,0,0,1,1.75.1,3.61,3.61,0,0,1,1.38.44,2.58,2.58,0,0,1,1,1,3.68,3.68,0,0,1,.36,1.82v34.92a3.7,3.7,0,0,1-.37,1.81,2.54,2.54,0,0,1-1,1,3.61,3.61,0,0,1-1.38.44,16.52,16.52,0,0,1-1.75.09h-1.4v2.94h.47c.44,0,1.06,0,1.84,0s1.66-.05,2.64-.1,2.05-.07,3.16-.09,2.29,0,3.35,0c2.24,0,4.48,0,6.66.07s4,.11,5.44.2c.54,0,1.09.05,1.62.05a22.17,22.17,0,0,0,8.15-1.52,24.14,24.14,0,0,0,13.45-12.8,23.38,23.38,0,0,0,2-9.59,24.18,24.18,0,0,0-1.87-9.65A20.85,20.85,0,0,0,471.86,165.59Zm-4.09,25.67a18.4,18.4,0,0,1-3.19,6.14,15.53,15.53,0,0,1-5.21,4.24,15.78,15.78,0,0,1-7.25,1.58,24.27,24.27,0,0,1-3-.16,4.63,4.63,0,0,1-2-.66A2.78,2.78,0,0,1,446,201a7.25,7.25,0,0,1-.37-2.59V162.72l1.84-.18c.73-.07,1.48-.1,2.22-.1a28.53,28.53,0,0,1,7.45.95,14.21,14.21,0,0,1,6,3.33,16.43,16.43,0,0,1,4.11,6.54A31.7,31.7,0,0,1,468.85,184,24.55,24.55,0,0,1,467.77,191.26Z"/><path d="M508.85,159.24c-1.85.09-3.63.13-5.31.13s-3.36,0-5.17-.13-3.4-.13-4.69-.13h-.47V162h1.4a14.2,14.2,0,0,1,1.75.1,3.72,3.72,0,0,1,1.39.44,2.56,2.56,0,0,1,1,1,3.7,3.7,0,0,1,.37,1.82v34.92a3.82,3.82,0,0,1-.37,1.81,2.61,2.61,0,0,1-1,1,3.72,3.72,0,0,1-1.39.44,16.52,16.52,0,0,1-1.75.09h-1.4v2.94h.47c1.31,0,2.88-.05,4.66-.14s3.53-.13,5.14-.13,3.43.05,5.31.13,3.6.14,5.22.14h.46v-2.94h-1.4a16.76,16.76,0,0,1-1.71-.09,3.76,3.76,0,0,1-1.42-.44,2.61,2.61,0,0,1-1-1,3.82,3.82,0,0,1-.37-1.81V165.37a3.67,3.67,0,0,1,.37-1.82,2.56,2.56,0,0,1,1-1,3.76,3.76,0,0,1,1.42-.44,14.37,14.37,0,0,1,1.71-.1h1.4v-2.93H514C512.45,159.11,510.72,159.15,508.85,159.24Z"/><path d="M570.87,192.57l-.41-.06-.11.4a15.6,15.6,0,0,1-4.62,7.83,12.35,12.35,0,0,1-8.52,2.95,16,16,0,0,1-7.93-1.87,17.06,17.06,0,0,1-5.55-5,21.53,21.53,0,0,1-3.26-7,31.19,31.19,0,0,1-1.05-8.07,28.62,28.62,0,0,1,1.05-8,18.32,18.32,0,0,1,3.08-6.24,14.38,14.38,0,0,1,5.07-4.1,15.86,15.86,0,0,1,7-1.48,17.89,17.89,0,0,1,6.1.9,12,12,0,0,1,4.08,2.43,12.12,12.12,0,0,1,2.63,3.63,28.24,28.24,0,0,1,1.67,4.49l.11.39.4,0,2-.27.46-.06L573,173c-.22-1.84-.37-3.7-.46-5.53s-.11-3.68-.07-5.53v-.42l-.41-.06a25.16,25.16,0,0,1-4.06-.88c-1.2-.38-2.4-.74-3.6-1.1a39.35,39.35,0,0,0-3.91-.94,26.57,26.57,0,0,0-5.09-.41,30.57,30.57,0,0,0-9.95,1.62,26.21,26.21,0,0,0-8.38,4.68A22.49,22.49,0,0,0,531.3,172a23.39,23.39,0,0,0-2.15,10.2,28.77,28.77,0,0,0,2,11.14,21.79,21.79,0,0,0,5.58,8,23.24,23.24,0,0,0,8.47,4.72,34.34,34.34,0,0,0,10.54,1.56,39.26,39.26,0,0,0,15.44-3l.25-.11,0-.27c.18-1.8.39-3.61.63-5.38a51.91,51.91,0,0,1,1-5.35l.12-.5-.51-.08Z"/><path d="M633.17,203.62a3.86,3.86,0,0,1-4-2.38c-.44-1-.86-2.1-1.25-3.26s-.8-2.35-1.2-3.5l-12.27-34.86c-.09-.27-.19-.55-.3-.85s-.21-.55-.29-.81l0-.06,0-.05a1,1,0,0,0-.86-.41,2.52,2.52,0,0,0-.68.16l0,0,0,0a28.72,28.72,0,0,1-2.65,1.44,26.53,26.53,0,0,1-3.31,1.37l-.26.09-.05.28a33.18,33.18,0,0,1-1,4.07c-.49,1.5-1,2.88-1.4,4.11l-10.66,30.6a5.89,5.89,0,0,1-2.13,3,5.52,5.52,0,0,1-3.23,1h-.87v3l.51,0c1.17-.09,2.38-.16,3.58-.2s2.4-.07,3.58-.07,2.66,0,4,.07,2.7.11,4,.2l.5,0v-3h-1.2a16.22,16.22,0,0,1-1.65-.09,8,8,0,0,1-1.54-.32,2.42,2.42,0,0,1-1-.58,1.18,1.18,0,0,1-.33-.87,6.11,6.11,0,0,1,.44-2c.31-.86.65-1.88,1-3l2-6.6H615l2.49,7.41c.36,1.06.67,2,.93,2.86a6.72,6.72,0,0,1,.38,1.79.85.85,0,0,1-.28.66,2.47,2.47,0,0,1-.89.49,5.68,5.68,0,0,1-1.24.25c-.44,0-.86.06-1.25.06h-1.2v3l.49,0c1.66-.09,3.35-.16,5-.2s3.33-.07,5-.07,3.14,0,4.65.07,3,.11,4.52.2l.5,0v-3h-.87Zm-31.08-18.19,5.62-17.09,5.55,17.09Z"/><path d="M685.65,194.29h-.35l-.09.34c-.22.73-.49,1.53-.79,2.37a10.48,10.48,0,0,1-1.21,2.29,8.59,8.59,0,0,1-2.47,2.17,8.7,8.7,0,0,1-3.61,1.23,38.13,38.13,0,0,1-4.47.27c-1.46,0-2.89-.05-4.24-.13a6.3,6.3,0,0,1-2.57-.9,2.58,2.58,0,0,1-1-2.37V165.17a4.27,4.27,0,0,1,.32-1.85,2,2,0,0,1,.78-.87,3,3,0,0,1,1.24-.34c.54-.05,1.12-.07,1.73-.07h2.13v-2.93h-.47c-1.69,0-3.4,0-5.09.13s-3.37.13-5,.13-3.52,0-5.24-.13-3.51-.13-5.29-.13h-.46V162h1.4a14.15,14.15,0,0,1,1.74.1,4,4,0,0,1,1.43.44,2.56,2.56,0,0,1,1,1,3.67,3.67,0,0,1,.37,1.82v34.26a5.25,5.25,0,0,1-.39,2.23,2.5,2.5,0,0,1-1,1.13,3.93,3.93,0,0,1-1.44.51,12,12,0,0,1-1.72.12h-1.4v2.94h.46c3,0,5.93-.05,8.81-.13s5.91-.14,8.79-.14,5.83.05,8.78.14,5.85.13,8.81.13h.38l.08-.37c.4-1.92.82-3.82,1.26-5.65s.85-3.77,1.21-5.69l.1-.56h-2.5Z"/><path d="M753.68,181.93a25.34,25.34,0,0,0-4.92-3,53.37,53.37,0,0,1-4.79-2.48,13.46,13.46,0,0,1-3.58-2.93,6.23,6.23,0,0,1-1.35-4.16,8.23,8.23,0,0,1,2-5.87,7.62,7.62,0,0,1,5.76-2.06,6.28,6.28,0,0,1,2.89.65,7.21,7.21,0,0,1,2.22,1.78,9.37,9.37,0,0,1,1.52,2.61,12,12,0,0,1,.77,3l.07.48.48-.08,1.87-.33.44-.08L757,169c-.22-1.59-.39-3.2-.5-4.77s-.16-3.15-.16-4.7v-.39l-.4-.07c-.53-.09-1.24-.19-2.15-.3s-1.86-.22-2.78-.3l-2.69-.27c-.88-.09-1.55-.13-2-.13a19,19,0,0,0-6.08.95,13.8,13.8,0,0,0-4.83,2.8,13.05,13.05,0,0,0-3.15,4.49,15.35,15.35,0,0,0-1.13,6,13.45,13.45,0,0,0,1.52,6.76,15.14,15.14,0,0,0,3.75,4.37,26.74,26.74,0,0,0,4.79,3c1.67.81,3.23,1.67,4.65,2.54a13.42,13.42,0,0,1,3.51,3.06,7,7,0,0,1,1.37,4.47,6.4,6.4,0,0,1-2.23,5.24,8.38,8.38,0,0,1-5.5,1.89,9.24,9.24,0,0,1-4-.82,9.08,9.08,0,0,1-2.91-2.19,10.24,10.24,0,0,1-1.92-3.22,20.29,20.29,0,0,1-1-4L733,193l-.49.1-1.86.4-.42.09,0,.42c.17,1.62.35,3.28.57,5.07.18,1.59.37,3.24.56,5.06l0,.25.22.12a35.38,35.38,0,0,0,5.2,2.16,18.18,18.18,0,0,0,5.61.89,21.38,21.38,0,0,0,6.27-.92,15.94,15.94,0,0,0,5.29-2.75,13.38,13.38,0,0,0,5-10.79,13.49,13.49,0,0,0-1.53-6.77A15.15,15.15,0,0,0,753.68,181.93Z"/><path d="M816.16,192.57l-.42-.06-.1.4a15.62,15.62,0,0,1-4.63,7.83,12.33,12.33,0,0,1-8.52,2.95,16,16,0,0,1-7.93-1.87,17.08,17.08,0,0,1-5.55-5,21.38,21.38,0,0,1-3.26-7,31.62,31.62,0,0,1-1-8.07,29,29,0,0,1,1-8,18.33,18.33,0,0,1,3.09-6.24,14.26,14.26,0,0,1,5.06-4.1,15.9,15.9,0,0,1,7-1.48,17.93,17.93,0,0,1,6.1.9,11.45,11.45,0,0,1,6.7,6.06,27.3,27.3,0,0,1,1.67,4.49l.11.39.4,0,2-.27.46-.06-.05-.46c-.22-1.84-.38-3.7-.47-5.53s-.11-3.68-.06-5.53v-.42l-.42-.06a25,25,0,0,1-4.05-.88c-1.2-.37-2.41-.75-3.61-1.1a38.69,38.69,0,0,0-3.91-.94,26.57,26.57,0,0,0-5.09-.41,30.51,30.51,0,0,0-9.94,1.62,26.21,26.21,0,0,0-8.38,4.68,22.39,22.39,0,0,0-5.79,7.56,23.53,23.53,0,0,0-2.14,10.2,28.77,28.77,0,0,0,2,11.14,21.7,21.7,0,0,0,5.59,8,23.2,23.2,0,0,0,8.46,4.72A34.39,34.39,0,0,0,801,207.56a39.49,39.49,0,0,0,8.56-.88,39.07,39.07,0,0,0,6.88-2.16l.26-.11,0-.27c.18-1.8.39-3.61.64-5.38a51.84,51.84,0,0,1,1-5.35l.12-.5-.51-.08Z"/><path d="M883.83,159.24c-1.82.09-3.6.13-5.27.13s-3.71,0-5.64-.13-3.69-.13-5.16-.13h-.46V162H869a14.93,14.93,0,0,1,1.78.1,4.83,4.83,0,0,1,1.52.42,2.38,2.38,0,0,1,1,1,3.53,3.53,0,0,1,.4,1.85V179.5H850.5V165.37a3.6,3.6,0,0,1,.4-1.85,2.46,2.46,0,0,1,1-1,4.72,4.72,0,0,1,1.55-.42,15.16,15.16,0,0,1,1.75-.1H857v-2.93h-.47c-1.47,0-3.2,0-5.15.13s-3.84.13-5.64.13-3.45,0-5.28-.13-3.45-.13-4.79-.13h-.47V162h1.41a14.15,14.15,0,0,1,1.74.1,3.72,3.72,0,0,1,1.39.44,2.56,2.56,0,0,1,1,1,3.67,3.67,0,0,1,.37,1.82v34.92a3.82,3.82,0,0,1-.37,1.81,2.61,2.61,0,0,1-1,1,3.72,3.72,0,0,1-1.39.44,16.47,16.47,0,0,1-1.74.09h-1.41v2.94h.47c1.36,0,3-.05,4.79-.14s3.62-.13,5.28-.13,3.67.05,5.64.13,3.66.14,5.15.14H857v-2.94h-1.73c-.56,0-1.15,0-1.75-.09a4.73,4.73,0,0,1-1.55-.43,2.37,2.37,0,0,1-1-.95,3.65,3.65,0,0,1-.4-1.86V184.17h23.26v16.12a3.57,3.57,0,0,1-.4,1.86,2.3,2.3,0,0,1-1,.95,4.69,4.69,0,0,1-1.52.43,17.39,17.39,0,0,1-1.78.09H867.3v2.94h.46c1.49,0,3.23-.05,5.16-.14s3.86-.13,5.64-.13,3.42.05,5.28.13,3.42.14,4.78.14h.47v-2.94h-1.4a16.76,16.76,0,0,1-1.71-.09,3.65,3.65,0,0,1-1.42-.44,2.54,2.54,0,0,1-1-1,3.7,3.7,0,0,1-.37-1.81V165.37a3.68,3.68,0,0,1,.36-1.82,2.58,2.58,0,0,1,1-1,3.65,3.65,0,0,1,1.42-.44,14.37,14.37,0,0,1,1.71-.1h1.4v-2.93h-.47C887.29,159.11,885.68,159.15,883.83,159.24Z"/><path d="M946.76,164.39a24.79,24.79,0,0,0-8.25-4.66,31.21,31.21,0,0,0-10.15-1.62,25.37,25.37,0,0,0-9.88,1.93,24.89,24.89,0,0,0-7.94,5.3,24.61,24.61,0,0,0-5.3,7.95,26.38,26.38,0,0,0,0,19.86,22.57,22.57,0,0,0,5.38,7.69,24.58,24.58,0,0,0,8.08,5,28,28,0,0,0,10,1.76,27.17,27.17,0,0,0,10.11-1.87,24,24,0,0,0,13.58-13.52,27.64,27.64,0,0,0,2-10.6,22.85,22.85,0,0,0-2-9.8A21.91,21.91,0,0,0,946.76,164.39Zm-3.23,26a21,21,0,0,1-2.15,6.65,13,13,0,0,1-4.44,4.82,13.7,13.7,0,0,1-7.58,1.86,12.36,12.36,0,0,1-6.84-1.89,16.08,16.08,0,0,1-4.92-5.09,24.76,24.76,0,0,1-3-7.33,35.55,35.55,0,0,1-1-8.55,31.86,31.86,0,0,1,.72-6.66,19.21,19.21,0,0,1,2.41-6.09,12.61,12.61,0,0,1,11.53-6.1,12.44,12.44,0,0,1,6.94,1.92,16.86,16.86,0,0,1,5,5,23.37,23.37,0,0,1,3,6.8,28.59,28.59,0,0,1,1,7.34A49.3,49.3,0,0,1,943.53,190.36Z"/><path d="M1010.23,164.39a24.79,24.79,0,0,0-8.25-4.66,31.16,31.16,0,0,0-10.15-1.62A25.29,25.29,0,0,0,982,160a24.36,24.36,0,0,0-13.25,13.25,26.38,26.38,0,0,0,0,19.86,22.85,22.85,0,0,0,5.38,7.69,24.69,24.69,0,0,0,8.08,5,28.08,28.08,0,0,0,10,1.76,27.15,27.15,0,0,0,10.1-1.87,24.23,24.23,0,0,0,8.15-5.3,24.63,24.63,0,0,0,5.44-8.22,27.83,27.83,0,0,0,2-10.6,22.85,22.85,0,0,0-2.05-9.8A21.91,21.91,0,0,0,1010.23,164.39Zm-3.23,26a20.78,20.78,0,0,1-2.15,6.65,13,13,0,0,1-4.44,4.82,13.7,13.7,0,0,1-7.58,1.86A12.41,12.41,0,0,1,986,201.8a16.19,16.19,0,0,1-4.92-5.09,25,25,0,0,1-3-7.33,35.55,35.55,0,0,1-1-8.55,31.86,31.86,0,0,1,.72-6.66,19.21,19.21,0,0,1,2.41-6.09A12.64,12.64,0,0,1,991.7,162a12.42,12.42,0,0,1,6.94,1.92,16.86,16.86,0,0,1,5,5,23.66,23.66,0,0,1,3,6.8,29,29,0,0,1,1,7.34A49.3,49.3,0,0,1,1007,190.36Z"/><path d="M1067.58,194.29h-2.28l-.1.34c-.22.74-.48,1.53-.79,2.37a10.07,10.07,0,0,1-1.21,2.29,9.05,9.05,0,0,1-6.07,3.4,38.29,38.29,0,0,1-4.48.27c-1.46,0-2.88-.05-4.23-.13a6.34,6.34,0,0,1-2.58-.9,2.58,2.58,0,0,1-1-2.37V165.17a4.29,4.29,0,0,1,.31-1.85,2,2,0,0,1,.78-.87,3.06,3.06,0,0,1,1.24-.34c.55-.05,1.13-.07,1.73-.07h2.14v-2.93h-.47c-1.69,0-3.4,0-5.09.13s-3.37.13-5,.13-3.53,0-5.24-.13-3.52-.13-5.29-.13h-.47V162h1.4a14.2,14.2,0,0,1,1.75.1,4.11,4.11,0,0,1,1.43.44,2.54,2.54,0,0,1,1,1,3.56,3.56,0,0,1,.37,1.82v34.26a5.25,5.25,0,0,1-.39,2.23,2.5,2.5,0,0,1-1,1.13,3.88,3.88,0,0,1-1.43.51,12,12,0,0,1-1.73.12h-1.4v2.94h.47c3,0,5.92-.05,8.81-.13s5.9-.14,8.78-.14,5.83.05,8.78.14,5.86.13,8.81.13h.38l.08-.37c.4-1.92.83-3.82,1.27-5.65s.84-3.77,1.2-5.69l.1-.56Z"/><path d="M567,75.4q0-6.3-3.22-8.94a12.26,12.26,0,0,0-8.08-2.65q-6.3,0-8.45,2.07c-1.43,1.39-2.29,4.08-2.58,8.09a3.69,3.69,0,0,1-1.43,2.51,12.28,12.28,0,0,1-2.93,1.79A18.54,18.54,0,0,1,537,79.34a12.6,12.6,0,0,1-2.51.35c-1.81,0-2.72-1.09-2.72-3.29A11.8,11.8,0,0,1,534,69.18a16.33,16.33,0,0,1,5.58-4.8l7.45-3.86q3.87-2,8-4.44a12.66,12.66,0,0,1,4.44-1.72,29.51,29.51,0,0,1,4.15-.28q9.45,0,14.39,4.79T583,73.11v29.2a33.3,33.3,0,0,0,.72,7.59,3.5,3.5,0,0,0,3.72,3,4.84,4.84,0,0,0,2.15-.57,7.09,7.09,0,0,0,1.86-1.29l1.86,2.58a40.57,40.57,0,0,1-6.58,6.51,13.58,13.58,0,0,1-8.45,2.51c-3.43,0-6-1-7.8-3.15a14.22,14.22,0,0,1-3.08-8.16,65.93,65.93,0,0,1-9.87,7.94,21.53,21.53,0,0,1-12,3.37,16.73,16.73,0,0,1-11-3.8q-4.58-3.78-4.58-10.94a14.4,14.4,0,0,1,1.58-7,15.77,15.77,0,0,1,4.29-4.94,27.27,27.27,0,0,1,6.16-3.5c2.28-1,4.72-1.91,7.3-2.87L567,83.42Zm0,12.88q-3,1-6.65,2.08a37.15,37.15,0,0,0-6.87,2.79,18.36,18.36,0,0,0-5.37,4.22,9.25,9.25,0,0,0-2.15,6.23q0,9.3,8.73,9.3a11.06,11.06,0,0,0,4.44-.86,16.21,16.21,0,0,0,3.58-2.07,17.33,17.33,0,0,0,2.65-2.5c.71-.86,1.26-1.58,1.64-2.15Z"/><path d="M639.63,73.4a21.5,21.5,0,0,0-3.3-10.09q-2.72-4.08-9.58-4.08A11,11,0,0,0,620,61.45a7.42,7.42,0,0,0-3,6.37,9.22,9.22,0,0,0,2.22,6.36,22.17,22.17,0,0,0,5.51,4.44c2.19,1.29,4.56,2.53,7.09,3.72a40,40,0,0,1,7.08,4.3,22.89,22.89,0,0,1,5.51,6,16.46,16.46,0,0,1,2.22,8.94,20.84,20.84,0,0,1-2.15,9.81,18.15,18.15,0,0,1-5.58,6.51,23.59,23.59,0,0,1-7.8,3.58,34.74,34.74,0,0,1-8.8,1.15,31.55,31.55,0,0,1-9.16-1.22q-4-1.22-7.73-2.51L604.13,103l4-.86a20.85,20.85,0,0,0,1.36,5.73,18.44,18.44,0,0,0,2.79,4.86,12.82,12.82,0,0,0,4.22,3.43,12.15,12.15,0,0,0,5.65,1.29,12.44,12.44,0,0,0,7.45-2.36,9,9,0,0,0,1.14-12.81,23.86,23.86,0,0,0-5.29-4.15c-2.1-1.24-4.42-2.48-6.94-3.72A35.76,35.76,0,0,1,611.57,90a22.56,22.56,0,0,1-5.29-6.3,18,18,0,0,1-2.15-9.16A20.35,20.35,0,0,1,605.85,66a18.27,18.27,0,0,1,4.79-6.44,21.65,21.65,0,0,1,7.3-4.08A28.29,28.29,0,0,1,627,54.08a38.27,38.27,0,0,1,8.8.93,64.72,64.72,0,0,1,8.09,2.5q-.28,3.87-.43,7.66a67,67,0,0,0,.14,7.51Z"/><path d="M695.19,73.4a21.6,21.6,0,0,0-3.29-10.09q-2.73-4.08-9.59-4.08a11,11,0,0,0-6.73,2.22,7.42,7.42,0,0,0-3,6.37,9.22,9.22,0,0,0,2.22,6.36,22.17,22.17,0,0,0,5.51,4.44q3.3,1.93,7.09,3.72a40,40,0,0,1,7.08,4.3,22.72,22.72,0,0,1,5.51,6,16.46,16.46,0,0,1,2.22,8.94,21,21,0,0,1-2.14,9.81,18.27,18.27,0,0,1-5.59,6.51,23.59,23.59,0,0,1-7.8,3.58,34.68,34.68,0,0,1-8.8,1.15,31.55,31.55,0,0,1-9.16-1.22q-4-1.22-7.73-2.51L659.69,103l4-.86a20.85,20.85,0,0,0,1.36,5.73,18.44,18.44,0,0,0,2.79,4.86,12.82,12.82,0,0,0,4.22,3.43,12.19,12.19,0,0,0,5.66,1.29,12.44,12.44,0,0,0,7.44-2.36,9,9,0,0,0,1.14-12.81A23.86,23.86,0,0,0,681,98.16c-2.1-1.24-4.42-2.48-6.94-3.72a35.76,35.76,0,0,1-7-4.44,22.56,22.56,0,0,1-5.29-6.3,18,18,0,0,1-2.15-9.16A20.35,20.35,0,0,1,661.41,66a18.27,18.27,0,0,1,4.79-6.44,21.74,21.74,0,0,1,7.3-4.08,28.29,28.29,0,0,1,9.09-1.43,38.42,38.42,0,0,1,8.81.93,65.1,65.1,0,0,1,8.08,2.5q-.29,3.87-.43,7.66a64.7,64.7,0,0,0,.15,7.51Z"/><path d="M824.34,50.07a59.8,59.8,0,0,0-3.65-9.81,26.77,26.77,0,0,0-5.87-8.08,26.06,26.06,0,0,0-9.09-5.44,39.06,39.06,0,0,0-13.45-2A34.66,34.66,0,0,0,776.82,28a31.52,31.52,0,0,0-11.23,9.08,40.2,40.2,0,0,0-6.8,13.74,62.56,62.56,0,0,0-2.29,17.4,67.89,67.89,0,0,0,2.29,17.6,46.85,46.85,0,0,0,7.15,15.39,37.53,37.53,0,0,0,12.24,11,35.15,35.15,0,0,0,17.54,4.15q11.6,0,19-6.59a34.56,34.56,0,0,0,10.24-17.31l4,.57a118,118,0,0,0-2.22,11.59c-.52,3.82-1,7.68-1.35,11.59a82.2,82.2,0,0,1-14.6,4.59,83.87,83.87,0,0,1-18.18,1.86,72.83,72.83,0,0,1-22.33-3.3,49,49,0,0,1-17.82-9.94,45.32,45.32,0,0,1-11.74-16.75q-4.23-10.09-4.22-23.55A49.21,49.21,0,0,1,741,47.63a46.78,46.78,0,0,1,12.16-15.88,54.71,54.71,0,0,1,17.68-9.88,64.41,64.41,0,0,1,21-3.43,57.82,57.82,0,0,1,10.74.85c2.95.58,5.72,1.24,8.3,2s5.15,1.55,7.72,2.36a56.8,56.8,0,0,0,8.88,1.93q-.15,6,.14,12t1,12Z"/><path d="M863.82,112.76q0,2.58,2.07,3a23.63,23.63,0,0,0,4.8.43h2.15v4.3c-2.78-.19-5.49-.33-8.16-.43s-5.4-.14-8.16-.14q-4.44,0-8.73.14t-8.45.43v-4.3a26.47,26.47,0,0,0,5.94-.57q2.51-.57,2.51-3.86V30.6a7.6,7.6,0,0,0-.65-3.58,6.07,6.07,0,0,0-3.07-2.14L839.34,23V19.58A88.34,88.34,0,0,0,850.58,16q6.36-2.43,11.66-4.86l1.58,1.28V64.53c1.62-1.06,3.26-2.2,4.93-3.44a49,49,0,0,1,5.3-3.43,32.27,32.27,0,0,1,5.8-2.58,19.7,19.7,0,0,1,6.3-1q7.73,0,12.73,4.14t5,14.32v39.65c0,2,.74,3.17,2.22,3.5a21.43,21.43,0,0,0,4.8.5h1.72v4.3q-4.15-.28-8.09-.43c-2.63-.09-5.32-.14-8.09-.14s-5.7,0-8.51.14-5.66.24-8.52.43v-4.3h1.43c.76,0,1.55,0,2.36-.07a7.68,7.68,0,0,0,2.22-.43,4.43,4.43,0,0,0,1.72-1.07,3,3,0,0,0,.72-2.15V76.69q0-6.59-3-9.3A11.26,11.26,0,0,0,877,64.67a17.08,17.08,0,0,0-7.16,1.64,48.26,48.26,0,0,0-6,3.22Z"/><path d="M958.34,75.4q0-6.3-3.22-8.94A12.31,12.31,0,0,0,947,63.81c-4.2,0-7,.69-8.45,2.07S936.3,70,936,74a3.73,3.73,0,0,1-1.43,2.51,12.35,12.35,0,0,1-2.94,1.79,18,18,0,0,1-3.29,1.07,12.61,12.61,0,0,1-2.5.35c-1.82,0-2.72-1.09-2.72-3.29a11.74,11.74,0,0,1,2.29-7.22,16.15,16.15,0,0,1,5.58-4.8l7.44-3.86q3.87-2,8-4.44a12.66,12.66,0,0,1,4.44-1.72,29.31,29.31,0,0,1,4.15-.28q9.44,0,14.38,4.79t4.94,14.24v29.2a34,34,0,0,0,.71,7.59,3.51,3.51,0,0,0,3.73,3,4.9,4.9,0,0,0,2.15-.57,6.86,6.86,0,0,0,1.85-1.29l1.86,2.58a40.18,40.18,0,0,1-6.58,6.51,13.55,13.55,0,0,1-8.44,2.51q-5.16,0-7.81-3.15a14.28,14.28,0,0,1-3.07-8.16,66,66,0,0,1-9.88,7.94,21.52,21.52,0,0,1-12,3.37,16.7,16.7,0,0,1-11-3.8q-4.59-3.78-4.58-10.94a14.4,14.4,0,0,1,1.57-7,15.67,15.67,0,0,1,4.3-4.94,27.41,27.41,0,0,1,6.15-3.5c2.29-1,4.73-1.91,7.3-2.87l17.75-6.15Zm0,12.88c-2,.67-4.22,1.36-6.66,2.08a37.15,37.15,0,0,0-6.87,2.79,18.63,18.63,0,0,0-5.37,4.22,9.3,9.3,0,0,0-2.14,6.23q0,9.3,8.73,9.3a11.06,11.06,0,0,0,4.44-.86A16.37,16.37,0,0,0,954,110a16.87,16.87,0,0,0,2.65-2.5c.72-.86,1.26-1.58,1.65-2.15Z"/><path d="M992.85,116.19h1a23.42,23.42,0,0,0,5.3-.5c1.43-.33,2.15-1.59,2.15-3.79V71.4a4.73,4.73,0,0,0-.51-2.51c-.33-.52-1.31-1-2.93-1.5a21.23,21.23,0,0,1-2.51-.72,22.51,22.51,0,0,0-2.5-.72V62.52c2.19-.57,4.44-1.24,6.73-2s4.39-1.48,6.29-2.15a45.41,45.41,0,0,0,4.94-2.08c1.67-.8,3.32-1.55,4.94-2.21l1.57,1.28v9.17c1.63-1.06,3.27-2.2,4.94-3.44a49,49,0,0,1,5.3-3.43,32.27,32.27,0,0,1,5.8-2.58,19.68,19.68,0,0,1,6.29-1q7.74,0,12.74,4.14t5,14.32v39.65c0,2,.74,3.17,2.22,3.5a21.43,21.43,0,0,0,4.8.5h1.72v4.3c-2.78-.19-5.47-.33-8.09-.43s-5.32-.14-8.09-.14-5.7,0-8.52.14-5.65.24-8.51.43v-4.3h1.43c.76,0,1.55,0,2.36-.07a7.68,7.68,0,0,0,2.22-.43,4.43,4.43,0,0,0,1.72-1.07,3,3,0,0,0,.71-2.15V76.69q0-6.59-3-9.3a11.22,11.22,0,0,0-7.86-2.72,17.08,17.08,0,0,0-7.16,1.64,49.19,49.19,0,0,0-6,3.22v43.23c0,1.72.7,2.72,2.08,3a23.53,23.53,0,0,0,4.79.43h2.15v4.3q-4.15-.28-8.16-.43t-8.16-.14q-4.42,0-8.72.14c-2.87.1-5.68.24-8.45.43Z"/><path d="M513.22,116a9.39,9.39,0,0,1-3.86-1.07,5.83,5.83,0,0,1-2.3-2.37,12.16,12.16,0,0,1-1.07-4.23l-5.44-65.66q-.29-2.43-.57-5.37a39,39,0,0,1-.14-5.81,5.07,5.07,0,0,1,1.64-3.73A10.08,10.08,0,0,1,505,25.81a17.26,17.26,0,0,1,4.29-.79c1.53-.09,2.81-.14,3.87-.14h1.29v-4.3c-2.49,0-5,.1-7.59.29s-5.11.29-7.59.29-5.1-.1-7.58-.29-4.82-.29-7-.29L450.74,95.44,417.25,20.58c-7.86,0-16.15,1-30.35,1-16.13,0-24.6-1-32.5-1v4.3h2.87a31.39,31.39,0,0,1,3.65.21,8,8,0,0,1,3.29,1.15,6.5,6.5,0,0,1,2.43,3.07,15.58,15.58,0,0,1,.93,6v48.8q0,14.46-6.51,22.91t-20.68,8.44a32.6,32.6,0,0,1-12.88-2.22,21.07,21.07,0,0,1-8.38-6.3,25,25,0,0,1-4.58-9.73,53.38,53.38,0,0,1-1.36-12.52V35.33a14.71,14.71,0,0,1,1-6,6.72,6.72,0,0,1,2.58-3.07,8.86,8.86,0,0,1,3.65-1.15,41.84,41.84,0,0,1,4.22-.21h1.72v-4.3q-4.29,0-9.66.29t-11.81.29q-6.87,0-12.52-.29t-10.24-.29v4.3h1.72a39.88,39.88,0,0,1,4.15.21,8.23,8.23,0,0,1,3.51,1.15,6.5,6.5,0,0,1,2.43,3.07,15.58,15.58,0,0,1,.93,6V87q0,19.19,11.09,27.42t31.71,8.22a56.36,56.36,0,0,0,15-1.93A29.29,29.29,0,0,0,364.93,114a32.63,32.63,0,0,0,8.23-12.82q3-8,3-20.18V35.33a16.81,16.81,0,0,1,.86-6,6.47,6.47,0,0,1,2.22-3.07,6.58,6.58,0,0,1,2.16-1l.14,0c.23,0,.47-.1.71-.13l.2-.05a29.6,29.6,0,0,1,10.48.28l.49.13a12.31,12.31,0,0,1,3,1.21l.1.06c.28.16.56.34.82.52a9,9,0,0,1,2.79,3.3,11,11,0,0,1,1.07,5.09c0,2.86-.13,6.5-.42,10.9s-.72,9.17-1.29,14.33l-4.3,39.85q-.42,3.87-.93,6.74a12.35,12.35,0,0,1-1.78,4.8,8,8,0,0,1-3.66,2.94,19.25,19.25,0,0,1-6.65,1.15h-2v4.29q4.15-.28,8.45-.43t8.45-.14q4.86,0,9.73.14c3.24.1,6.49.24,9.73.43v-4.29h-1.71c-2-.1-3.78-.22-5.3-.36a8.66,8.66,0,0,1-3.87-1.21,6.56,6.56,0,0,1-2.22-2.87,14.18,14.18,0,0,1-.78-5.29l4.87-62.84h.28l34.64,78.86h3.43l36.5-80.43h.29l4,60.4c.09,1.91.14,3.34.14,4.29v2.72a6.34,6.34,0,0,1-.86,3.58,5.17,5.17,0,0,1-2.5,1.93,14.35,14.35,0,0,1-3.87.86c-1.48.14-3.17.26-5.08.36v4.29q6-.28,11.81-.43t11.81-.14q5.14,0,10.38.14t10.23.43v-4.29C516.63,116.24,514.79,116.12,513.22,116Z"/><path d="M95.75,177.17c-12.2,9.62-43.82,30.39-62.34,20.21-21.95-12.07-1.86-39.5,9.42-53.47,26.37-32.68,70.39-70,70.39-85.21,0-7.33-8.71-9.46-17.71-9.46-18.87,0-71.42,22.7-71.42,56.28,0,12.3,7.84,19.16,22.65,22.47-11.2,6.14-27.06,2.47-33.32-8.13v87.7H95.75Z"/><path class="cls-1" d="M233.26,11.39H157.05l-32.22,37,2.36,1.34.1.07c5.91,3.81,8.29,8.9,8.29,13.17,0,3.83-2,9.22-6.17,15-9.18,12.67-66,76.06-76.23,89.44-19.33,25.3,10.14,31.33,53.93-8.31,30.76-27.85,88.2-102.49,88.2-102.49h25.9s-43.42,59.24-60.65,90.11c-10.71,19.18-21.31,48.37,1.45,48.07,14.86-.21,30.25-20.58,31.06-44.35a17.21,17.21,0,0,1,7.26,13.95c.24,15.64-16.59,37.26-38.19,37.82a35.64,35.64,0,0,1-11.21-1.63v7h82.33Z"/><path d="M89.64,11.39H13.42V99.82C21.83,80,50.36,44,102.77,44a55.48,55.48,0,0,1,17.46,2.47Z"/><path d="M124.81,48.39c.34.17.7.33,1,.51l-.73-.84Z"/></svg>