<svg xmlns="http://www.w3.org/2000/svg" viewBox="0 0 650 600"><rect x="305" y="0" width="40" height="300" style="fill: url(&quot;#topGradient&quot;);"/><defs><linearGradient id="topGradient" x1="0%" y1="0%" x2="0%" y2="100%"><stop offset="0%" stop-color="#ec271c"/><stop offset="100%" stop-color="#dc5e2d"/></linearGradient></defs><rect x="305" y="300" width="40" height="300" style="fill: url(&quot;#bottomGradient&quot;);"/><defs><linearGradient id="bottomGradient" x1="0%" y1="0%" x2="0%" y2="100%"><stop offset="100%" stop-color="#271b78"/><stop offset="0%" stop-color="#332aa3"/></linearGradient></defs><rect x="305" y="504" width="16" height="96" style="fill: rgb(1, 185, 212);"/><rect x="0" y="300" width="325" height="24" style="fill: rgb(253, 121, 17);"/><rect x="325" y="300" width="325" height="24" style="fill: rgb(241, 7, 81);"/><defs><linearGradient id="yellowGradient" gradientTransform="rotate(90)"><stop offset="0%" stop-color="#fbdf00"/><stop offset="50%" stop-color="#feaf02"/><stop offset="100%" stop-color="#fbdf00"/></linearGradient></defs><defs><linearGradient id="orangeGradient" gradientTransform="rotate(-90)"><stop offset="0%" stop-color="#fd7c0c"/><stop offset="100%" stop-color="#f82a35"/></linearGradient></defs><defs><linearGradient id="orangeGradient2"><stop offset="0%" stop-color="#f03536"/><stop offset="100%" stop-color="#fd7e10"/></linearGradient></defs><defs><linearGradient id="redGradient" gradientTransform="rotate(-90)"><stop offset="0%" stop-color="#f41946"/><stop offset="100%" stop-color="#f60f46"/></linearGradient></defs><polygon points="501,192, 613,192, 613,224, 597,224, 597,232, 501,232, " style="fill: rgb(255, 196, 1);"/><polygon points="453,160, 461,160, 461,144, 469,144, 469,80, 501,80, 501,192, 525,192, 525,216, 557,216, 557,232, 517,232, 517,240, 325,240, " style="fill: url(&quot;#orangeGradient&quot;);"/><polygon points="413,112, 345,112, 345,184, 445,184, 445,176, 453,176, 453,160, 445,160, 445,144, 437,144, 437,128, 413,128, " style="fill: url(&quot;#redGradient&quot;);"/><polygon points="305,0, 345,0, 345,72, 373,72, 373,68, 397,68, 397,96, 413,96, 413,112, 377,112, 377,144, 349,144, 349,168, 345,168, 345,200, 229,200, 229,144, 301,96, 305,96, " style="fill: url(&quot;#orangeGradient&quot;);"/><polygon points="200,124, 80,124, 80,156, 96,156, 96,172, 40,172, 40,204, 16,204, 16,220, 80,220, 80,252, 16,252, 16,268, 200,268, " style="fill: url(&quot;#orangeGradient2&quot;);"/><polygon points="305,300, 96,300, 96,276, 136,276, 136,228, 152,228, 152,180, 176,180, 176,148, 200,148, 200,124, 240,124, 240,60, 272,60, 272,92, 305,92, 305,108, 285,108, 285,140, 261,140, 261,148, 229,148, 229,300, " style="fill: url(&quot;#yellowGradient&quot;);"/><polygon points="16,204, 16,172, 48,172, 48,204, " style="fill: rgb(255, 201, 0);"/><rect x="325" y="284" width="325" height="16" style="fill: rgb(245, 91, 27);"/><defs><linearGradient id="blueGradient" gradientTransform="rotate(-90)"><stop offset="0%" stop-color="#00a2ca"/><stop offset="100%" stop-color="#02d0e5"/></linearGradient></defs><polygon points="305,504, 305,344, 69,344, 69,368, 165,368, 165,536, 197,536, 197,520, 269,520, 269,456, 293,456, 293,504, " style="fill: url(&quot;#blueGradient&quot;);"/><polygon points="325,368, 37,368, 37,384, 130,384, 130,408, 82,408, 82,440, 106,440, 106,488, 130,488, 130,408, 138,408, 138,440, 170,440, 170,432, 194,432, 194,408, 389,408, 389,536, 405,536, 405,512, 421,512, 421,408, " style="fill: rgb(43, 28, 124);"/><polygon points="525,496, 525,432, 549,432, 549,400, 573,400, 573,384, 501,384, 501,360, 485,360, 485,496, " style="fill: rgb(213, 0, 185);"/><polygon points="37,384, 37,368, 29,368, 29,384, 5,384, 5,400, 345,400, 345,384, 345,456, 357,456, 357,504, 405,504, 405,496, 517,496, 517,440, 493,440, 493,384, " style="fill: rgb(139, 0, 167);"/><ellipse cx="413" cy="300" rx="120" style="fill: black;"/><rect x="233" y="180" width="184" height="240" style="fill: black;"/><polygon points="229,164 301,156 301,420 229,420" style="fill: black;"/><polygon points="112,324 325,324 325,388 96,388" style="fill: black;"/><polygon points="120,388 325,388 325,420 112,420" style="fill: black;"/><path d="M189,284C169.16666666666666,311.3333333333333,104,316.6666666666667,112,330C120,343.3333333333333,217.16666666666666,391.3333333333333,237,364C256.8333333333333,336.6666666666667,239,179.33333333333334,231,166C223,152.66666666666666,208.83333333333334,256.6666666666667,189,284" style="fill: black;"/><ellipse cx="397" cy="292" rx="104" ry="96" style="fill: white;"/><rect x="301" y="180" width="40" height="240" style="fill: black;"/><rect x="293" y="252" width="40" height="80" style="fill: black;"/><ellipse cx="397" cy="292" rx="48" ry="48" style="fill: black;"/><rect x="341" y="196" width="56" height="192" style="fill: white;"/><rect x="277" y="316" width="72" height="72" style="fill: white;"/><ellipse cx="277" cy="320" rx="64" ry="72" style="fill: black;"/><path d="M269,172C269,172,251.66666666666666,316,229,348C206.33333333333334,380,133,364,133,364" style="stroke: white; stroke-width: 64;"/><rect x="229" y="164" width="72" height="17.6" style="fill: black;"/><circle r="8" fill="#ffd200" cx="195" cy="84"/><circle r="4" fill="#fc9610" cx="240.66666666666666" cy="40"/><circle r="6" fill="#fb4c23" cx="400" cy="42.857142857142854"/><circle r="2" fill="#fb4c23" cx="64" cy="142.85714285714286"/><circle r="2" fill="#fb4c23" cx="424" cy="75"/><circle r="4" fill="#fb4c23" cx="560" cy="150"/><circle r="8" fill="#f9173e" cx="536" cy="162.16216216216216"/><circle r="3.2" fill="#f9173e" cx="640" cy="200"/><circle r="5.2" fill="#dc08ae" cx="104" cy="96"/><circle r="3.2" fill="#dc08ae" cx="24" cy="340"/><circle r="1.2" fill="#dc08ae" cx="56" cy="336"/><circle r="4.8" fill="#dc08ae" cx="440" cy="456"/><circle r="3.2" fill="#dc08ae" cx="456" cy="520"/><circle r="4.8" fill="#dc08ae" cx="544" cy="460"/><circle r="1.6" fill="#dc08ae" cx="584" cy="432"/><circle r="2.4" fill="#dc08ae" cx="626" cy="336"/><circle r="2.4" fill="#2a148c" cx="400" cy="560"/><circle r="3.2" fill="#2a148c" cx="120" cy="520"/><circle r="2.8" fill="#2a148c" cx="92" cy="472"/><circle r="12" fill="#02aed3" cx="60" cy="424"/><rect width="14" height="24" fill="#02aed3" x="48" y="412" rx="4"/><rect width="24" height="24" rx="4" ry="4" fill="#f81f3b" x="432" y="88"/></svg>